<svg xmlns="http://www.w3.org/2000/svg" id="Badge_Premium_S" data-name="Badge Premium S" viewBox="0 0 20 20"><defs><style>.cls-1{fill:#ebcf2d;}</style></defs><circle id="Ellipse_24535" data-name="Ellipse 24535" cx="10" cy="10" r="10"/><g id="SL_PremiumV3_18_N" data-name="SL PremiumV3 18 N"><g id="Smock"><rect id="Canvas" x="4" y="4" width="12" height="12"/></g><g id="premium_testing" data-name="premium testing"><g id="Group_173774" data-name="Group 173774"><path id="Path_124080" data-name="Path 124080" class="cls-1" d="M6.889,12.149h6.222a.518.518,0,0,0,.513-.448c.109-.783.914-3.419,1.037-4.307a.519.519,0,0,0-.8-.507,12.7588,12.7588,0,0,0-1.283.987c-.237.2-.467.39-.694.564-.189-.333-.375-.688-.563-1.042-.292-.552-.585-1.105-.887-1.593a.539.539,0,0,0-.882,0c-.31.5-.61,1.067-.905,1.627-.182.344-.363.687-.544,1.007-.227-.173-.455-.365-.692-.563a13.03,13.03,0,0,0-1.278-.989.519.519,0,0,0-.794.509c.125.9.929,3.528,1.037,4.307a.5179.5179,0,0,0,.512.448Z"/><path id="Path_124081" data-name="Path 124081" class="cls-1" d="M13,13.333H7a.667.667,0,0,0,0,1.333h6a.667.667,0,1,0,.0516-1.333Q13.0258,13.332,13,13.333Z"/></g></g></g></svg>